<?xml version="1.0" standalone="no"?>
<!DOCTYPE svg PUBLIC "-//W3C//DTD SVG 20010904//EN"
 "http://www.w3.org/TR/2001/REC-SVG-20010904/DTD/svg10.dtd">
<svg version="1.0" xmlns="http://www.w3.org/2000/svg"
 width="3000.000000pt" height="3000.000000pt" viewBox="0 0 3000.000000 3000.000000"
 preserveAspectRatio="xMidYMid meet">

<g transform="translate(0.000000,3000.000000) scale(0.100000,-0.100000)"
fill="#0868AC" stroke="none">
<path d="M16629 29258 c-145 -200 -295 -415 -335 -478 -279 -448 -453 -940
-530 -1500 -21 -156 -30 -607 -15 -781 92 -1053 578 -2055 1391 -2869 607
-608 1328 -1048 2163 -1319 368 -120 907 -191 1443 -191 347 0 603 24 909 85
699 140 1283 437 1800 914 293 271 589 655 825 1071 45 80 92 161 103 180 27
46 24 43 -74 -80 -109 -136 -296 -323 -432 -432 -450 -358 -935 -556 -1589
-644 -157 -22 -676 -30 -877 -14 -922 71 -1710 313 -2446 753 -755 450 -1403
1113 -1840 1882 -86 150 -240 466 -296 605 -294 737 -385 1468 -268 2170 52
312 168 669 305 942 19 37 32 68 30 68 -2 0 -122 -163 -267 -362z"/>
<path d="M12228 27978 c-578 -817 -544 -767 -635 -918 -453 -746 -705 -1546
-784 -2485 -16 -190 -16 -736 0 -920 68 -793 230 -1454 528 -2165 76 -180 280
-588 390 -780 227 -393 611 -957 819 -1200 96 -112 627 -648 777 -783 860
-778 1859 -1370 2927 -1735 366 -125 526 -170 690 -196 301 -49 609 -84 1010
-118 210 -18 1140 -18 1345 0 344 29 666 73 945 128 1545 304 2838 1080 3782
2269 380 479 724 1076 919 1594 21 57 39 106 39 109 0 3 -35 -42 -77 -99 -382
-513 -845 -952 -1375 -1301 -917 -607 -1980 -945 -3163 -1008 -1740 -92 -3623
502 -5125 1616 -556 412 -1112 944 -1537 1471 -986 1223 -1550 2599 -1652
4035 -14 186 -14 650 -1 833 44 613 175 1196 391 1740 35 88 115 265 179 393
64 127 115 232 114 232 -1 0 -229 -321 -506 -712z"/>
<path d="M6923 26013 c-367 -466 -692 -883 -722 -927 -675 -1000 -1075 -2155
-1186 -3419 -35 -400 -37 -974 -5 -1371 132 -1644 698 -3271 1650 -4746 764
-1185 1789 -2253 2975 -3102 830 -593 1751 -1084 2697 -1436 285 -107 842
-288 1031 -336 150 -39 797 -137 1147 -175 543 -59 851 -75 1420 -75 483 0
662 6 1030 40 2081 187 3895 963 5360 2293 801 728 1515 1664 1985 2601 76
153 188 400 183 405 -2 2 -40 -43 -84 -98 -213 -267 -554 -624 -811 -849 -656
-575 -1447 -1048 -2288 -1369 -1639 -625 -3589 -764 -5588 -399 -455 83 -768
164 -1247 322 -2089 688 -4003 2018 -5401 3753 -535 663 -930 1284 -1297 2035
-527 1078 -849 2210 -956 3365 -53 561 -45 1241 20 1775 104 865 331 1647 708
2443 30 64 53 117 51 117 -2 0 -304 -381 -672 -847z"/>
<path d="M8110 8644 c-463 -42 -813 -136 -1156 -314 -761 -392 -1295 -1139
-1599 -2234 -137 -497 -193 -897 -182 -1324 6 -247 21 -368 68 -562 183 -744
705 -1191 1536 -1314 237 -35 350 -37 1938 -30 1693 7 1603 4 1640 60 9 14 74
247 146 519 136 521 137 529 90 554 -12 7 -116 11 -281 11 l-261 0 -24 25
c-14 13 -25 29 -25 34 0 6 19 57 41 113 315 787 557 1553 634 2008 22 130 30
426 16 575 -37 379 -165 736 -368 1022 -329 464 -831 744 -1504 838 -110 16
-601 28 -709 19z m409 -1200 c655 -96 936 -608 775 -1411 -13 -68 -128 -491
-254 -940 -297 -1053 -273 -974 -315 -1012 l-36 -31 -668 0 c-721 0 -756 2
-908 54 -203 69 -343 191 -438 379 -155 307 -163 727 -25 1344 224 1003 659
1522 1358 1618 137 18 383 18 511 -1z"/>
<path d="M27075 8079 c-16 -4 -45 -21 -63 -36 -18 -15 -451 -640 -961 -1388
-511 -747 -936 -1364 -944 -1369 -37 -23 -52 18 -122 329 -37 165 -74 315 -83
334 -11 23 -29 40 -58 53 -41 18 -73 18 -652 16 -584 -3 -611 -4 -631 -22 -12
-11 -21 -29 -21 -40 0 -12 122 -446 270 -966 243 -848 271 -953 271 -1020 1
-64 -16 -141 -120 -544 -67 -259 -121 -476 -121 -483 0 -8 11 -25 25 -38 l24
-25 611 0 c650 0 639 -1 683 47 11 13 64 200 142 502 68 266 135 506 148 534
13 29 701 950 1527 2047 827 1097 1511 2007 1519 2021 13 23 13 30 2 43 -12
14 -83 16 -715 15 -385 0 -714 -5 -731 -10z"/>
<path d="M17945 7479 c-910 -85 -1522 -476 -1890 -1208 -115 -230 -206 -485
-290 -816 -249 -976 -248 -1582 5 -1992 205 -333 583 -528 1185 -610 118 -16
230 -18 1235 -18 1044 0 1107 1 1138 18 18 10 39 32 47 50 17 37 205 949 205
994 0 18 -9 38 -21 49 -20 18 -57 19 -1083 25 -942 5 -1071 8 -1146 23 -286
57 -421 165 -465 373 -15 70 -18 211 -7 298 l7 50 1457 5 1458 5 25 25 c56 56
191 699 226 1072 17 187 7 504 -20 640 -81 405 -275 667 -616 834 -192 94
-406 150 -683 179 -150 16 -612 18 -767 4z m391 -1093 c211 -46 342 -142 405
-296 19 -46 23 -79 26 -195 4 -128 2 -143 -17 -173 -40 -64 -11 -62 -855 -62
-521 0 -773 3 -786 11 -49 26 -43 81 22 212 151 302 389 468 744 516 99 14
375 6 461 -13z m1296 -1353 c22 -20 23 -70 1 -95 -20 -22 -70 -23 -95 -1 -22
20 -23 70 -1 95 20 22 70 23 95 1z"/>
<path d="M3804 7424 c-16 -8 -37 -27 -46 -42 -15 -26 -228 -937 -228 -976 0
-9 11 -28 25 -41 l24 -25 578 0 c555 0 579 1 610 20 17 10 36 27 42 38 14 27
211 930 211 969 0 20 -8 41 -20 53 -20 20 -33 20 -592 20 -490 0 -577 -3 -604
-16z"/>
<path d="M11743 7415 c-17 -7 -39 -25 -48 -38 -14 -22 -302 -1361 -485 -2252
-136 -667 -143 -1120 -21 -1483 122 -364 387 -605 772 -701 221 -55 183 -54
1444 -58 798 -3 1181 -1 1205 6 20 6 48 23 62 38 25 26 59 180 492 2218 256
1205 466 2203 466 2217 0 17 -10 34 -26 47 -26 21 -36 21 -543 21 -577 0 -568
1 -603 -70 -10 -19 -176 -768 -369 -1665 -193 -896 -357 -1640 -365 -1653 -9
-13 -29 -32 -47 -43 -31 -19 -47 -20 -487 -16 -396 3 -463 6 -514 21 -332 98
-395 335 -261 986 19 91 59 297 90 459 31 162 130 657 221 1100 120 585 163
813 157 831 -17 49 -21 50 -583 49 -424 0 -531 -2 -557 -14z"/>
<path d="M21123 7406 c-47 -21 -66 -61 -92 -183 -12 -60 -216 -1015 -453
-2123 -236 -1108 -434 -2044 -438 -2079 -11 -81 -2 -103 46 -121 49 -17 902
-27 1015 -11 86 12 108 29 139 109 11 31 93 410 180 842 217 1072 496 2374
515 2404 39 59 -41 56 1409 56 1313 0 1326 0 1346 20 11 11 20 33 20 49 0 52
-121 544 -152 619 -56 135 -151 239 -280 307 -94 50 -164 73 -298 97 -112 20
-151 21 -1520 24 -1221 4 -1409 3 -1437 -10z"/>
<path d="M3455 5988 l-35 -33 -164 -730 c-91 -401 -212 -955 -271 -1230 -58
-275 -135 -636 -170 -801 -74 -343 -102 -439 -176 -585 -97 -194 -214 -334
-329 -395 l-55 -29 -237 -2 c-222 -1 -239 -3 -266 -22 -16 -11 -34 -33 -41
-48 -6 -16 -63 -247 -126 -515 -123 -518 -124 -527 -73 -547 33 -12 938 -20
1088 -9 555 39 915 319 1171 913 70 164 159 434 212 650 24 99 199 894 388
1768 l343 1587 -21 28 -20 27 -592 3 -591 2 -35 -32z"/>
</g>
</svg>
